<svg xmlns="http://www.w3.org/2000/svg" viewBox="0 0 64 64" width="64" height="64" shape-rendering="crispEdges">
  <rect x="0" y="0" width="64" height="64" fill="#020617"/>
  <rect x="3" y="3" width="58" height="58" fill="#050505" stroke="#4c1d95" stroke-width="4"/>
  <rect x="8" y="8" width="48" height="48" fill="#0a0a0a" stroke="#334155" stroke-width="2"/>
  <g opacity="0.16" fill="#22d3ee">
    <rect x="10" y="18" width="44" height="1"/>
    <rect x="10" y="30" width="44" height="1"/>
    <rect x="10" y="42" width="44" height="1"/>
  </g>
  <g transform="translate(15 7) scale(2.15)">
    <rect fill="#0c0a09" x="5" y="0" width="6" height="1"/><rect fill="#0c0a09" x="5" y="1" width="6" height="1"/><rect fill="#0c0a09" x="3" y="2" width="10" height="1"/><rect fill="#0c0a09" x="2" y="3" width="12" height="2"/><rect fill="#0c0a09" x="1" y="5" width="14" height="4"/><rect fill="#0c0a09" x="2" y="9" width="12" height="2"/><rect fill="#0c0a09" x="3" y="11" width="10" height="1"/><rect fill="#0c0a09" x="4" y="12" width="8" height="2"/><rect fill="#0c0a09" x="5" y="14" width="6" height="1"/><rect fill="#0c0a09" x="5" y="15" width="6" height="2"/><rect fill="#0c0a09" x="6" y="17" width="4" height="2"/>
    <rect fill="#facc15" x="6" y="1" width="4" height="1"/><rect fill="#facc15" x="4" y="2" width="8" height="1"/><rect fill="#facc15" x="3" y="3" width="10" height="2"/><rect fill="#facc15" x="2" y="5" width="12" height="4"/><rect fill="#facc15" x="3" y="9" width="10" height="2"/><rect fill="#facc15" x="4" y="11" width="8" height="1"/><rect fill="#facc15" x="5" y="12" width="6" height="1"/>
    <rect fill="#d97706" x="11" y="5" width="2" height="4"/><rect fill="#d97706" x="9" y="9" width="4" height="1"/><rect fill="#d97706" x="8" y="10" width="4" height="1"/><rect fill="#d97706" x="6" y="11" width="6" height="1"/><rect fill="#d97706" x="5" y="12" width="6" height="1"/>
    <rect fill="#fffde7" x="7" y="5" width="2" height="1"/><rect fill="#fffde7" x="6" y="6" width="1" height="1"/><rect fill="#fffde7" x="9" y="6" width="1" height="1"/><rect fill="#fffde7" x="7" y="6" width="2" height="2"/>
    <rect fill="#fffbeb" x="4" y="3" width="2" height="1"/><rect fill="#fffbeb" x="3" y="4" width="2" height="1"/><rect fill="#fffbeb" x="3" y="5" width="1" height="1"/>
    <rect fill="#a1a1aa" x="5" y="13" width="6" height="1"/><rect fill="#52525b" x="5" y="14" width="6" height="1"/><rect fill="#a1a1aa" x="6" y="15" width="4" height="1"/><rect fill="#52525b" x="6" y="16" width="4" height="1"/><rect fill="#3f3f46" x="7" y="17" width="2" height="1"/>
  </g>
  <rect x="20" y="48" width="24" height="4" fill="#db2777" opacity="0.85"/>
  <rect x="24" y="53" width="16" height="3" fill="#2563eb" opacity="0.85"/>
</svg>
