<svg xmlns="http://www.w3.org/2000/svg" viewBox="0 0 64 64" width="64" height="64" shape-rendering="crispEdges">
  <rect x="0" y="0" width="64" height="64" fill="#020617"/>
  <rect x="3" y="3" width="58" height="58" fill="#111827" stroke="#0891b2" stroke-width="4"/>
  <rect x="15" y="8" width="34" height="46" fill="#f8fafc" stroke="#0f172a" stroke-width="3"/>
  <rect x="42" y="8" width="7" height="7" fill="#cbd5e1" stroke="#0f172a" stroke-width="2"/>
  <rect x="20" y="16" width="24" height="4" fill="#db2777"/>
  <rect x="20" y="24" width="6" height="6" fill="#111827"/>
  <rect x="29" y="24" width="6" height="6" fill="#111827"/>
  <rect x="38" y="24" width="6" height="6" fill="#111827"/>
  <rect x="20" y="35" width="18" height="3" fill="#64748b"/>
  <rect x="20" y="42" width="23" height="3" fill="#64748b"/>
  <g transform="translate(35 34)">
    <rect x="0" y="5" width="8" height="8" fill="#facc15" stroke="#0c0a09" stroke-width="2"/>
    <rect x="8" y="8" width="12" height="3" fill="#facc15" stroke="#0c0a09" stroke-width="2"/>
    <rect x="17" y="5" width="3" height="3" fill="#0c0a09"/>
    <rect x="13" y="11" width="3" height="4" fill="#0c0a09"/>
  </g>
</svg>
